<mxfile host="app.diagrams.net" modified="2023-12-27T14:49:23.609Z" agent="Mozilla/5.0 (Windows NT 10.0; Win64; x64) AppleWebKit/537.36 (KHTML, like Gecko) Chrome/120.0.0.0 Safari/537.36" etag="3GZkWYI2sZMUhq8YXu-e" version="22.1.12" type="github">
  <diagram name="Page-1" id="9iTtiZq9-TsZFg5jVh1a">
    <mxGraphModel dx="2835" dy="2215" grid="1" gridSize="10" guides="1" tooltips="1" connect="1" arrows="1" fold="1" page="1" pageScale="1" pageWidth="850" pageHeight="1100" math="0" shadow="0">
      <root>
        <mxCell id="0" />
        <mxCell id="1" parent="0" />
        <mxCell id="pUsL_FLaXqviKLcXuYQH-1" value="" style="rounded=0;whiteSpace=wrap;html=1;" parent="1" vertex="1">
          <mxGeometry width="1090" height="1300" as="geometry" />
        </mxCell>
        <mxCell id="pUsL_FLaXqviKLcXuYQH-3" value="Subnets" style="text;strokeColor=none;fillColor=none;html=1;fontSize=24;fontStyle=1;verticalAlign=middle;align=center;" parent="1" vertex="1">
          <mxGeometry x="36" y="-230" width="100" height="40" as="geometry" />
        </mxCell>
        <mxCell id="pUsL_FLaXqviKLcXuYQH-16" value="" style="rounded=0;whiteSpace=wrap;html=1;" parent="1" vertex="1">
          <mxGeometry x="80" y="80" width="240" height="900" as="geometry" />
        </mxCell>
        <mxCell id="pUsL_FLaXqviKLcXuYQH-17" value="" style="rounded=0;whiteSpace=wrap;html=1;" parent="1" vertex="1">
          <mxGeometry x="810" y="80" width="200" height="900" as="geometry" />
        </mxCell>
        <mxCell id="pUsL_FLaXqviKLcXuYQH-18" value="Public" style="text;html=1;strokeColor=none;fillColor=none;align=center;verticalAlign=middle;whiteSpace=wrap;rounded=0;" parent="1" vertex="1">
          <mxGeometry x="160" y="50" width="60" height="30" as="geometry" />
        </mxCell>
        <mxCell id="pUsL_FLaXqviKLcXuYQH-19" value="Private" style="text;html=1;strokeColor=none;fillColor=none;align=center;verticalAlign=middle;whiteSpace=wrap;rounded=0;" parent="1" vertex="1">
          <mxGeometry x="880" y="50" width="60" height="30" as="geometry" />
        </mxCell>
        <mxCell id="pUsL_FLaXqviKLcXuYQH-20" value="10.0.1.0/24" style="text;html=1;strokeColor=none;fillColor=none;align=center;verticalAlign=middle;whiteSpace=wrap;rounded=0;" parent="1" vertex="1">
          <mxGeometry x="160" y="400" width="60" height="30" as="geometry" />
        </mxCell>
        <mxCell id="pUsL_FLaXqviKLcXuYQH-23" value="10.0.2.0/24" style="text;html=1;strokeColor=none;fillColor=none;align=center;verticalAlign=middle;whiteSpace=wrap;rounded=0;" parent="1" vertex="1">
          <mxGeometry x="880" y="400" width="60" height="30" as="geometry" />
        </mxCell>
        <mxCell id="pUsL_FLaXqviKLcXuYQH-24" value="" style="outlineConnect=0;dashed=0;verticalLabelPosition=bottom;verticalAlign=top;align=center;html=1;shape=mxgraph.aws3.internet_gateway;fillColor=#F58534;gradientColor=none;" parent="1" vertex="1">
          <mxGeometry x="-20" y="-30" width="69" height="72" as="geometry" />
        </mxCell>
        <mxCell id="pUsL_FLaXqviKLcXuYQH-25" value="Internet Gateway" style="text;html=1;strokeColor=none;fillColor=none;align=center;verticalAlign=middle;whiteSpace=wrap;rounded=0;" parent="1" vertex="1">
          <mxGeometry x="49" y="20" width="60" height="30" as="geometry" />
        </mxCell>
        <mxCell id="pUsL_FLaXqviKLcXuYQH-26" value="" style="image;aspect=fixed;perimeter=ellipsePerimeter;html=1;align=center;shadow=0;dashed=0;spacingTop=3;image=img/lib/active_directory/internet_cloud.svg;" parent="1" vertex="1">
          <mxGeometry x="160" y="-180" width="50" height="31.5" as="geometry" />
        </mxCell>
        <mxCell id="pUsL_FLaXqviKLcXuYQH-28" value="Internet" style="text;html=1;strokeColor=none;fillColor=none;align=center;verticalAlign=middle;whiteSpace=wrap;rounded=0;" parent="1" vertex="1">
          <mxGeometry x="135" y="-110" width="60" height="30" as="geometry" />
        </mxCell>
        <mxCell id="pUsL_FLaXqviKLcXuYQH-30" value="" style="endArrow=classic;startArrow=classic;html=1;rounded=0;exitX=0.5;exitY=0;exitDx=0;exitDy=0;exitPerimeter=0;entryX=0.487;entryY=1.249;entryDx=0;entryDy=0;entryPerimeter=0;" parent="1" source="pUsL_FLaXqviKLcXuYQH-24" target="pUsL_FLaXqviKLcXuYQH-26" edge="1">
          <mxGeometry width="50" height="50" relative="1" as="geometry">
            <mxPoint x="280" y="-70" as="sourcePoint" />
            <mxPoint x="180" y="-70" as="targetPoint" />
          </mxGeometry>
        </mxCell>
        <mxCell id="pUsL_FLaXqviKLcXuYQH-31" value="" style="rounded=0;whiteSpace=wrap;html=1;" parent="1" vertex="1">
          <mxGeometry x="100" y="120" width="60" height="40" as="geometry" />
        </mxCell>
        <mxCell id="pUsL_FLaXqviKLcXuYQH-32" value="" style="rounded=0;whiteSpace=wrap;html=1;" parent="1" vertex="1">
          <mxGeometry x="170" y="120" width="60" height="40" as="geometry" />
        </mxCell>
        <mxCell id="pUsL_FLaXqviKLcXuYQH-33" value="" style="rounded=0;whiteSpace=wrap;html=1;" parent="1" vertex="1">
          <mxGeometry x="240" y="120" width="60" height="40" as="geometry" />
        </mxCell>
        <mxCell id="pUsL_FLaXqviKLcXuYQH-34" value="www (Web Servers)" style="text;html=1;strokeColor=none;fillColor=none;align=center;verticalAlign=middle;whiteSpace=wrap;rounded=0;" parent="1" vertex="1">
          <mxGeometry x="120" y="180" width="140" height="30" as="geometry" />
        </mxCell>
        <mxCell id="pUsL_FLaXqviKLcXuYQH-35" value="" style="shape=cylinder3;whiteSpace=wrap;html=1;boundedLbl=1;backgroundOutline=1;size=15;" parent="1" vertex="1">
          <mxGeometry x="830" y="120" width="60" height="80" as="geometry" />
        </mxCell>
        <mxCell id="pUsL_FLaXqviKLcXuYQH-36" value="" style="shape=cylinder3;whiteSpace=wrap;html=1;boundedLbl=1;backgroundOutline=1;size=15;" parent="1" vertex="1">
          <mxGeometry x="920" y="120" width="60" height="80" as="geometry" />
        </mxCell>
        <mxCell id="pUsL_FLaXqviKLcXuYQH-37" value="Database" style="text;html=1;strokeColor=none;fillColor=none;align=center;verticalAlign=middle;whiteSpace=wrap;rounded=0;" parent="1" vertex="1">
          <mxGeometry x="880" y="210" width="60" height="30" as="geometry" />
        </mxCell>
        <mxCell id="pUsL_FLaXqviKLcXuYQH-41" value="" style="rounded=0;whiteSpace=wrap;html=1;" parent="1" vertex="1">
          <mxGeometry x="425" y="80" width="330" height="900" as="geometry" />
        </mxCell>
        <mxCell id="pUsL_FLaXqviKLcXuYQH-42" value="Private" style="text;html=1;strokeColor=none;fillColor=none;align=center;verticalAlign=middle;whiteSpace=wrap;rounded=0;" parent="1" vertex="1">
          <mxGeometry x="575" y="50" width="60" height="30" as="geometry" />
        </mxCell>
        <mxCell id="pUsL_FLaXqviKLcXuYQH-43" value="" style="sketch=0;points=[[0,0,0],[0.25,0,0],[0.5,0,0],[0.75,0,0],[1,0,0],[0,1,0],[0.25,1,0],[0.5,1,0],[0.75,1,0],[1,1,0],[0,0.25,0],[0,0.5,0],[0,0.75,0],[1,0.25,0],[1,0.5,0],[1,0.75,0]];outlineConnect=0;fontColor=#232F3E;fillColor=#ED7100;strokeColor=#ffffff;dashed=0;verticalLabelPosition=bottom;verticalAlign=top;align=center;html=1;fontSize=12;fontStyle=0;aspect=fixed;shape=mxgraph.aws4.resourceIcon;resIcon=mxgraph.aws4.ec2;" parent="1" vertex="1">
          <mxGeometry x="455" y="120" width="78" height="78" as="geometry" />
        </mxCell>
        <mxCell id="pUsL_FLaXqviKLcXuYQH-44" value="" style="sketch=0;points=[[0,0,0],[0.25,0,0],[0.5,0,0],[0.75,0,0],[1,0,0],[0,1,0],[0.25,1,0],[0.5,1,0],[0.75,1,0],[1,1,0],[0,0.25,0],[0,0.5,0],[0,0.75,0],[1,0.25,0],[1,0.5,0],[1,0.75,0]];outlineConnect=0;fontColor=#232F3E;fillColor=#ED7100;strokeColor=#ffffff;dashed=0;verticalLabelPosition=bottom;verticalAlign=top;align=center;html=1;fontSize=12;fontStyle=0;aspect=fixed;shape=mxgraph.aws4.resourceIcon;resIcon=mxgraph.aws4.ec2;" parent="1" vertex="1">
          <mxGeometry x="557" y="120" width="78" height="78" as="geometry" />
        </mxCell>
        <mxCell id="pUsL_FLaXqviKLcXuYQH-45" value="" style="sketch=0;points=[[0,0,0],[0.25,0,0],[0.5,0,0],[0.75,0,0],[1,0,0],[0,1,0],[0.25,1,0],[0.5,1,0],[0.75,1,0],[1,1,0],[0,0.25,0],[0,0.5,0],[0,0.75,0],[1,0.25,0],[1,0.5,0],[1,0.75,0]];outlineConnect=0;fontColor=#232F3E;fillColor=#ED7100;strokeColor=#ffffff;dashed=0;verticalLabelPosition=bottom;verticalAlign=top;align=center;html=1;fontSize=12;fontStyle=0;aspect=fixed;shape=mxgraph.aws4.resourceIcon;resIcon=mxgraph.aws4.ec2;" parent="1" vertex="1">
          <mxGeometry x="655" y="120" width="78" height="78" as="geometry" />
        </mxCell>
        <mxCell id="pUsL_FLaXqviKLcXuYQH-46" value="Amazon EC2" style="text;html=1;strokeColor=none;fillColor=none;align=center;verticalAlign=middle;whiteSpace=wrap;rounded=0;" parent="1" vertex="1">
          <mxGeometry x="541" y="220" width="110" height="30" as="geometry" />
        </mxCell>
        <mxCell id="pUsL_FLaXqviKLcXuYQH-48" value="" style="endArrow=none;html=1;rounded=0;exitX=1;exitY=0.5;exitDx=0;exitDy=0;entryX=0;entryY=0.5;entryDx=0;entryDy=0;" parent="1" source="pUsL_FLaXqviKLcXuYQH-16" target="pUsL_FLaXqviKLcXuYQH-41" edge="1">
          <mxGeometry width="50" height="50" relative="1" as="geometry">
            <mxPoint x="510" y="270" as="sourcePoint" />
            <mxPoint x="560" y="220" as="targetPoint" />
          </mxGeometry>
        </mxCell>
        <mxCell id="pUsL_FLaXqviKLcXuYQH-49" value="" style="endArrow=none;html=1;rounded=0;exitX=1;exitY=0.5;exitDx=0;exitDy=0;" parent="1" source="pUsL_FLaXqviKLcXuYQH-41" target="pUsL_FLaXqviKLcXuYQH-17" edge="1">
          <mxGeometry width="50" height="50" relative="1" as="geometry">
            <mxPoint x="760" y="260" as="sourcePoint" />
            <mxPoint x="560" y="220" as="targetPoint" />
            <Array as="points">
              <mxPoint x="780" y="530" />
            </Array>
          </mxGeometry>
        </mxCell>
        <mxCell id="pUsL_FLaXqviKLcXuYQH-52" value="" style="endArrow=none;html=1;rounded=0;exitX=0.5;exitY=1;exitDx=0;exitDy=0;entryX=0.5;entryY=1;entryDx=0;entryDy=0;" parent="1" source="pUsL_FLaXqviKLcXuYQH-18" target="pUsL_FLaXqviKLcXuYQH-19" edge="1">
          <mxGeometry width="50" height="50" relative="1" as="geometry">
            <mxPoint x="640" y="370" as="sourcePoint" />
            <mxPoint x="690" y="320" as="targetPoint" />
            <Array as="points">
              <mxPoint x="580" y="40" />
            </Array>
          </mxGeometry>
        </mxCell>
        <mxCell id="pUsL_FLaXqviKLcXuYQH-54" value="Availability Zone (AZ)&lt;br&gt;2" style="text;html=1;strokeColor=none;fillColor=none;align=center;verticalAlign=middle;whiteSpace=wrap;rounded=0;" parent="1" vertex="1">
          <mxGeometry x="560" y="380" width="60" height="30" as="geometry" />
        </mxCell>
        <mxCell id="pUsL_FLaXqviKLcXuYQH-56" value="" style="endArrow=none;html=1;rounded=0;exitX=0;exitY=0.75;exitDx=0;exitDy=0;entryX=1;entryY=0.75;entryDx=0;entryDy=0;" parent="1" source="pUsL_FLaXqviKLcXuYQH-41" target="pUsL_FLaXqviKLcXuYQH-41" edge="1">
          <mxGeometry width="50" height="50" relative="1" as="geometry">
            <mxPoint x="570" y="540" as="sourcePoint" />
            <mxPoint x="620" y="490" as="targetPoint" />
          </mxGeometry>
        </mxCell>
        <mxCell id="pUsL_FLaXqviKLcXuYQH-57" value="" style="endArrow=none;html=1;rounded=0;exitX=0;exitY=0.75;exitDx=0;exitDy=0;entryX=1;entryY=0.75;entryDx=0;entryDy=0;" parent="1" source="pUsL_FLaXqviKLcXuYQH-16" target="pUsL_FLaXqviKLcXuYQH-16" edge="1">
          <mxGeometry width="50" height="50" relative="1" as="geometry">
            <mxPoint x="435" y="600" as="sourcePoint" />
            <mxPoint x="300" y="590" as="targetPoint" />
          </mxGeometry>
        </mxCell>
        <mxCell id="pUsL_FLaXqviKLcXuYQH-58" value="" style="endArrow=none;html=1;rounded=0;exitX=0;exitY=0.75;exitDx=0;exitDy=0;entryX=1;entryY=0.75;entryDx=0;entryDy=0;" parent="1" source="pUsL_FLaXqviKLcXuYQH-17" target="pUsL_FLaXqviKLcXuYQH-17" edge="1">
          <mxGeometry width="50" height="50" relative="1" as="geometry">
            <mxPoint x="840" y="600" as="sourcePoint" />
            <mxPoint x="980" y="590" as="targetPoint" />
          </mxGeometry>
        </mxCell>
        <mxCell id="pUsL_FLaXqviKLcXuYQH-59" value="" style="rounded=0;whiteSpace=wrap;html=1;" parent="1" vertex="1">
          <mxGeometry x="100" y="780" width="60" height="40" as="geometry" />
        </mxCell>
        <mxCell id="pUsL_FLaXqviKLcXuYQH-60" value="" style="rounded=0;whiteSpace=wrap;html=1;" parent="1" vertex="1">
          <mxGeometry x="170" y="780" width="60" height="40" as="geometry" />
        </mxCell>
        <mxCell id="pUsL_FLaXqviKLcXuYQH-61" value="" style="rounded=0;whiteSpace=wrap;html=1;" parent="1" vertex="1">
          <mxGeometry x="240" y="780" width="60" height="40" as="geometry" />
        </mxCell>
        <mxCell id="pUsL_FLaXqviKLcXuYQH-62" value="www (Web Servers)" style="text;html=1;strokeColor=none;fillColor=none;align=center;verticalAlign=middle;whiteSpace=wrap;rounded=0;" parent="1" vertex="1">
          <mxGeometry x="120" y="840" width="140" height="30" as="geometry" />
        </mxCell>
        <mxCell id="pUsL_FLaXqviKLcXuYQH-63" value="" style="sketch=0;points=[[0,0,0],[0.25,0,0],[0.5,0,0],[0.75,0,0],[1,0,0],[0,1,0],[0.25,1,0],[0.5,1,0],[0.75,1,0],[1,1,0],[0,0.25,0],[0,0.5,0],[0,0.75,0],[1,0.25,0],[1,0.5,0],[1,0.75,0]];outlineConnect=0;fontColor=#232F3E;fillColor=#ED7100;strokeColor=#ffffff;dashed=0;verticalLabelPosition=bottom;verticalAlign=top;align=center;html=1;fontSize=12;fontStyle=0;aspect=fixed;shape=mxgraph.aws4.resourceIcon;resIcon=mxgraph.aws4.ec2;" parent="1" vertex="1">
          <mxGeometry x="451" y="782" width="78" height="78" as="geometry" />
        </mxCell>
        <mxCell id="pUsL_FLaXqviKLcXuYQH-64" value="" style="sketch=0;points=[[0,0,0],[0.25,0,0],[0.5,0,0],[0.75,0,0],[1,0,0],[0,1,0],[0.25,1,0],[0.5,1,0],[0.75,1,0],[1,1,0],[0,0.25,0],[0,0.5,0],[0,0.75,0],[1,0.25,0],[1,0.5,0],[1,0.75,0]];outlineConnect=0;fontColor=#232F3E;fillColor=#ED7100;strokeColor=#ffffff;dashed=0;verticalLabelPosition=bottom;verticalAlign=top;align=center;html=1;fontSize=12;fontStyle=0;aspect=fixed;shape=mxgraph.aws4.resourceIcon;resIcon=mxgraph.aws4.ec2;" parent="1" vertex="1">
          <mxGeometry x="553" y="782" width="78" height="78" as="geometry" />
        </mxCell>
        <mxCell id="pUsL_FLaXqviKLcXuYQH-65" value="" style="sketch=0;points=[[0,0,0],[0.25,0,0],[0.5,0,0],[0.75,0,0],[1,0,0],[0,1,0],[0.25,1,0],[0.5,1,0],[0.75,1,0],[1,1,0],[0,0.25,0],[0,0.5,0],[0,0.75,0],[1,0.25,0],[1,0.5,0],[1,0.75,0]];outlineConnect=0;fontColor=#232F3E;fillColor=#ED7100;strokeColor=#ffffff;dashed=0;verticalLabelPosition=bottom;verticalAlign=top;align=center;html=1;fontSize=12;fontStyle=0;aspect=fixed;shape=mxgraph.aws4.resourceIcon;resIcon=mxgraph.aws4.ec2;" parent="1" vertex="1">
          <mxGeometry x="651" y="782" width="78" height="78" as="geometry" />
        </mxCell>
        <mxCell id="pUsL_FLaXqviKLcXuYQH-66" value="Amazon EC2" style="text;html=1;strokeColor=none;fillColor=none;align=center;verticalAlign=middle;whiteSpace=wrap;rounded=0;" parent="1" vertex="1">
          <mxGeometry x="537" y="860" width="110" height="30" as="geometry" />
        </mxCell>
        <mxCell id="pUsL_FLaXqviKLcXuYQH-69" value="" style="shape=cylinder3;whiteSpace=wrap;html=1;boundedLbl=1;backgroundOutline=1;size=15;" parent="1" vertex="1">
          <mxGeometry x="835" y="770" width="60" height="80" as="geometry" />
        </mxCell>
        <mxCell id="pUsL_FLaXqviKLcXuYQH-70" value="" style="shape=cylinder3;whiteSpace=wrap;html=1;boundedLbl=1;backgroundOutline=1;size=15;" parent="1" vertex="1">
          <mxGeometry x="925" y="770" width="60" height="80" as="geometry" />
        </mxCell>
        <mxCell id="pUsL_FLaXqviKLcXuYQH-71" value="Database" style="text;html=1;strokeColor=none;fillColor=none;align=center;verticalAlign=middle;whiteSpace=wrap;rounded=0;" parent="1" vertex="1">
          <mxGeometry x="885" y="860" width="60" height="30" as="geometry" />
        </mxCell>
        <mxCell id="pUsL_FLaXqviKLcXuYQH-72" value="Local" style="text;html=1;strokeColor=none;fillColor=none;align=center;verticalAlign=middle;whiteSpace=wrap;rounded=0;" parent="1" vertex="1">
          <mxGeometry x="160" y="870" width="60" height="30" as="geometry" />
        </mxCell>
        <mxCell id="pUsL_FLaXqviKLcXuYQH-73" value="Local" style="text;html=1;strokeColor=none;fillColor=none;align=center;verticalAlign=middle;whiteSpace=wrap;rounded=0;" parent="1" vertex="1">
          <mxGeometry x="559" y="890" width="60" height="30" as="geometry" />
        </mxCell>
        <mxCell id="pUsL_FLaXqviKLcXuYQH-74" value="Local" style="text;html=1;strokeColor=none;fillColor=none;align=center;verticalAlign=middle;whiteSpace=wrap;rounded=0;" parent="1" vertex="1">
          <mxGeometry x="880" y="890" width="60" height="30" as="geometry" />
        </mxCell>
        <mxCell id="pUsL_FLaXqviKLcXuYQH-75" value="" style="outlineConnect=0;dashed=0;verticalLabelPosition=bottom;verticalAlign=top;align=center;html=1;shape=mxgraph.aws3.internet_gateway;fillColor=#F58534;gradientColor=none;" parent="1" vertex="1">
          <mxGeometry x="91" y="870" width="69" height="72" as="geometry" />
        </mxCell>
        <mxCell id="pUsL_FLaXqviKLcXuYQH-77" value="" style="outlineConnect=0;dashed=0;verticalLabelPosition=bottom;verticalAlign=top;align=center;html=1;shape=mxgraph.aws3.internet_gateway;fillColor=#F58534;gradientColor=none;" parent="1" vertex="1">
          <mxGeometry x="826" y="900" width="69" height="72" as="geometry" />
        </mxCell>
        <mxCell id="pUsL_FLaXqviKLcXuYQH-78" value="" style="outlineConnect=0;dashed=0;verticalLabelPosition=bottom;verticalAlign=top;align=center;html=1;shape=mxgraph.aws3.internet_gateway;fillColor=#F58534;gradientColor=none;" parent="1" vertex="1">
          <mxGeometry x="450" y="890" width="69" height="72" as="geometry" />
        </mxCell>
        <mxCell id="pUsL_FLaXqviKLcXuYQH-88" value="" style="endArrow=none;html=1;rounded=0;entryX=0.009;entryY=0.892;entryDx=0;entryDy=0;entryPerimeter=0;" parent="1" target="pUsL_FLaXqviKLcXuYQH-41" edge="1">
          <mxGeometry width="50" height="50" relative="1" as="geometry">
            <mxPoint x="320" y="883" as="sourcePoint" />
            <mxPoint x="424.64" y="865" as="targetPoint" />
            <Array as="points">
              <mxPoint x="370" y="883" />
            </Array>
          </mxGeometry>
        </mxCell>
        <mxCell id="pUsL_FLaXqviKLcXuYQH-90" value="" style="endArrow=none;html=1;rounded=0;" parent="1" edge="1">
          <mxGeometry width="50" height="50" relative="1" as="geometry">
            <mxPoint x="370" y="880" as="sourcePoint" />
            <mxPoint x="370" y="530" as="targetPoint" />
          </mxGeometry>
        </mxCell>
        <mxCell id="pUsL_FLaXqviKLcXuYQH-91" value="" style="endArrow=none;html=1;rounded=0;entryX=-0.027;entryY=0.925;entryDx=0;entryDy=0;entryPerimeter=0;" parent="1" target="pUsL_FLaXqviKLcXuYQH-17" edge="1">
          <mxGeometry width="50" height="50" relative="1" as="geometry">
            <mxPoint x="755" y="914" as="sourcePoint" />
            <mxPoint x="805" y="864" as="targetPoint" />
          </mxGeometry>
        </mxCell>
        <mxCell id="pUsL_FLaXqviKLcXuYQH-92" value="" style="endArrow=none;html=1;rounded=0;" parent="1" edge="1">
          <mxGeometry width="50" height="50" relative="1" as="geometry">
            <mxPoint x="780" y="910" as="sourcePoint" />
            <mxPoint x="780" y="530" as="targetPoint" />
          </mxGeometry>
        </mxCell>
        <mxCell id="pUsL_FLaXqviKLcXuYQH-94" value="Availability Zone (AZ)&lt;br&gt;1" style="text;html=1;strokeColor=none;fillColor=none;align=center;verticalAlign=middle;whiteSpace=wrap;rounded=0;" parent="1" vertex="1">
          <mxGeometry x="160" y="370" width="60" height="30" as="geometry" />
        </mxCell>
        <mxCell id="pUsL_FLaXqviKLcXuYQH-96" value="Availability Zone (AZ)&lt;br&gt;3" style="text;html=1;strokeColor=none;fillColor=none;align=center;verticalAlign=middle;whiteSpace=wrap;rounded=0;" parent="1" vertex="1">
          <mxGeometry x="880" y="370" width="60" height="30" as="geometry" />
        </mxCell>
        <mxCell id="pUsL_FLaXqviKLcXuYQH-97" value="Availability Zone (AZ)&lt;br&gt;3" style="text;html=1;strokeColor=none;fillColor=none;align=center;verticalAlign=middle;whiteSpace=wrap;rounded=0;" parent="1" vertex="1">
          <mxGeometry x="220" y="900" width="60" height="30" as="geometry" />
        </mxCell>
        <mxCell id="pUsL_FLaXqviKLcXuYQH-100" value="Availability Zone (AZ)&lt;br&gt;1" style="text;html=1;strokeColor=none;fillColor=none;align=center;verticalAlign=middle;whiteSpace=wrap;rounded=0;" parent="1" vertex="1">
          <mxGeometry x="664" y="920" width="60" height="30" as="geometry" />
        </mxCell>
        <mxCell id="pUsL_FLaXqviKLcXuYQH-103" value="Availability Zone (AZ)&lt;br&gt;2" style="text;html=1;strokeColor=none;fillColor=none;align=center;verticalAlign=middle;whiteSpace=wrap;rounded=0;" parent="1" vertex="1">
          <mxGeometry x="940" y="921" width="60" height="30" as="geometry" />
        </mxCell>
        <mxCell id="pUsL_FLaXqviKLcXuYQH-104" value="Web Layer" style="text;html=1;strokeColor=none;fillColor=none;align=center;verticalAlign=middle;whiteSpace=wrap;rounded=0;" parent="1" vertex="1">
          <mxGeometry x="149" y="1000" width="60" height="30" as="geometry" />
        </mxCell>
        <mxCell id="pUsL_FLaXqviKLcXuYQH-105" value="Application Layer" style="text;html=1;strokeColor=none;fillColor=none;align=center;verticalAlign=middle;whiteSpace=wrap;rounded=0;" parent="1" vertex="1">
          <mxGeometry x="550" y="1000" width="60" height="30" as="geometry" />
        </mxCell>
        <mxCell id="pUsL_FLaXqviKLcXuYQH-106" value="Database Layer" style="text;html=1;strokeColor=none;fillColor=none;align=center;verticalAlign=middle;whiteSpace=wrap;rounded=0;" parent="1" vertex="1">
          <mxGeometry x="920" y="1000" width="60" height="30" as="geometry" />
        </mxCell>
        <mxCell id="pUsL_FLaXqviKLcXuYQH-107" value="&lt;b&gt;&lt;font style=&quot;font-size: 24px;&quot;&gt;VPC&lt;/font&gt;&lt;/b&gt;" style="text;html=1;strokeColor=none;fillColor=none;align=center;verticalAlign=middle;whiteSpace=wrap;rounded=0;" parent="1" vertex="1">
          <mxGeometry x="370" y="-30" width="60" height="30" as="geometry" />
        </mxCell>
        <mxCell id="pUsL_FLaXqviKLcXuYQH-108" value="&lt;b&gt;&lt;font style=&quot;font-size: 24px;&quot;&gt;10.0.0.0/16&lt;/font&gt;&lt;/b&gt;" style="text;html=1;strokeColor=none;fillColor=none;align=center;verticalAlign=middle;whiteSpace=wrap;rounded=0;" parent="1" vertex="1">
          <mxGeometry x="559" y="-30" width="60" height="30" as="geometry" />
        </mxCell>
        <mxCell id="pUsL_FLaXqviKLcXuYQH-112" value="" style="endArrow=classic;html=1;rounded=0;exitX=1;exitY=0.75;exitDx=0;exitDy=0;" parent="1" source="pUsL_FLaXqviKLcXuYQH-107" edge="1">
          <mxGeometry width="50" height="50" relative="1" as="geometry">
            <mxPoint x="400" y="-30" as="sourcePoint" />
            <mxPoint x="520" y="-10" as="targetPoint" />
          </mxGeometry>
        </mxCell>
        <mxCell id="QVGbTfmGtTte0CUe0tTn-1" value="Subnet:&amp;nbsp;A segment of the IP address range of a Amazon VPC that an EC2 instance can be attached to. You can create subnets to group instances according to security and operational needs." style="shape=note;whiteSpace=wrap;html=1;backgroundOutline=1;darkOpacity=0.05;" vertex="1" parent="1">
          <mxGeometry x="-350" width="230" height="170" as="geometry" />
        </mxCell>
      </root>
    </mxGraphModel>
  </diagram>
</mxfile>
